<svg width="49" height="46" viewBox="0 0 49 46" fill="none" xmlns="http://www.w3.org/2000/svg">
<path d="M11.9437 32.775C13.6791 31.5292 15.6187 30.5469 17.7625 29.8281C19.9062 29.1094 22.1521 28.75 24.5 28.75C26.8479 28.75 29.0937 29.1094 31.2375 29.8281C33.3812 30.5469 35.3208 31.5292 37.0562 32.775C38.2472 31.4653 39.1745 29.9799 39.838 28.3188C40.5015 26.6577 40.8333 24.8847 40.8333 23C40.8333 18.7514 39.2425 15.1337 36.0609 12.1469C32.8793 9.16008 29.0257 7.66668 24.5 7.66668C19.9743 7.66668 16.1206 9.16008 12.939 12.1469C9.75745 15.1337 8.16665 18.7514 8.16665 23C8.16665 24.8847 8.49842 26.6577 9.16196 28.3188C9.8255 29.9799 10.7528 31.4653 11.9437 32.775ZM24.5 24.9167C22.4923 24.9167 20.7995 24.2698 19.4213 22.9761C18.0432 21.6823 17.3541 20.0931 17.3541 18.2083C17.3541 16.3236 18.0432 14.7344 19.4213 13.4406C20.7995 12.1469 22.4923 11.5 24.5 11.5C26.5076 11.5 28.2005 12.1469 29.5786 13.4406C30.9568 14.7344 31.6458 16.3236 31.6458 18.2083C31.6458 20.0931 30.9568 21.6823 29.5786 22.9761C28.2005 24.2698 26.5076 24.9167 24.5 24.9167ZM24.5 42.1667C21.6757 42.1667 19.0215 41.6636 16.5375 40.6573C14.0535 39.6511 11.8927 38.2854 10.0552 36.5604C8.21769 34.8354 6.763 32.807 5.69113 30.475C4.61925 28.1431 4.08331 25.6514 4.08331 23C4.08331 20.3486 4.61925 17.857 5.69113 15.525C6.763 13.1931 8.21769 11.1646 10.0552 9.43959C11.8927 7.71459 14.0535 6.34897 16.5375 5.34272C19.0215 4.33647 21.6757 3.83334 24.5 3.83334C27.3243 3.83334 29.9785 4.33647 32.4625 5.34272C34.9465 6.34897 37.1073 7.71459 38.9448 9.43959C40.7823 11.1646 42.237 13.1931 43.3088 15.525C44.3807 17.857 44.9166 20.3486 44.9166 23C44.9166 25.6514 44.3807 28.1431 43.3088 30.475C42.237 32.807 40.7823 34.8354 38.9448 36.5604C37.1073 38.2854 34.9465 39.6511 32.4625 40.6573C29.9785 41.6636 27.3243 42.1667 24.5 42.1667Z" fill="#1D1B20"/>
</svg>





