<svg width="1440" height="93" viewBox="0 0 1440 93" fill="none" xmlns="http://www.w3.org/2000/svg">
<rect width="1440" height="93" fill="#FEF7FF"/>
<path d="M650.215 36.8594V52.5H648.131L640.257 40.4365V52.5H638.184V36.8594H640.257L648.163 48.9551V36.8594H650.215ZM658.411 52.7148C657.602 52.7148 656.868 52.5788 656.209 52.3066C655.557 52.0273 654.995 51.637 654.522 51.1357C654.057 50.6344 653.699 50.04 653.448 49.3525C653.198 48.665 653.072 47.9131 653.072 47.0967V46.6455C653.072 45.7002 653.212 44.8587 653.491 44.1211C653.771 43.3763 654.15 42.7461 654.63 42.2305C655.11 41.7148 655.654 41.3245 656.263 41.0596C656.871 40.7946 657.502 40.6621 658.153 40.6621C658.984 40.6621 659.7 40.8053 660.302 41.0918C660.91 41.3783 661.408 41.7793 661.795 42.2949C662.182 42.8034 662.468 43.4049 662.654 44.0996C662.84 44.7871 662.934 45.5391 662.934 46.3555V47.2471H654.254V45.625H660.946V45.4746C660.918 44.959 660.81 44.4577 660.624 43.9707C660.445 43.4837 660.159 43.0827 659.765 42.7676C659.371 42.4525 658.834 42.2949 658.153 42.2949C657.702 42.2949 657.287 42.3916 656.907 42.585C656.528 42.7712 656.202 43.0505 655.93 43.4229C655.658 43.7952 655.446 44.25 655.296 44.7871C655.146 45.3242 655.07 45.9437 655.07 46.6455V47.0967C655.07 47.6481 655.146 48.1673 655.296 48.6543C655.453 49.1341 655.679 49.5566 655.973 49.9219C656.273 50.2871 656.635 50.5736 657.058 50.7812C657.487 50.9889 657.974 51.0928 658.519 51.0928C659.22 51.0928 659.815 50.9495 660.302 50.6631C660.789 50.3766 661.215 49.9935 661.58 49.5137L662.783 50.4697C662.533 50.8493 662.214 51.2109 661.827 51.5547C661.44 51.8984 660.964 52.1777 660.398 52.3926C659.84 52.6074 659.177 52.7148 658.411 52.7148ZM668.197 50.4375L671.184 40.877H672.494L672.236 42.7783L669.196 52.5H667.918L668.197 50.4375ZM666.188 40.877L668.734 50.5449L668.917 52.5H667.574L664.201 40.877H666.188ZM675.352 50.4697L677.779 40.877H679.756L676.383 52.5H675.051L675.352 50.4697ZM672.784 40.877L675.706 50.2764L676.039 52.5H674.771L671.646 42.7568L671.388 40.877H672.784ZM687.555 36.8594H692.732C693.907 36.8594 694.899 37.0384 695.708 37.3965C696.524 37.7546 697.144 38.2845 697.566 38.9863C697.996 39.681 698.211 40.5368 698.211 41.5537C698.211 42.2699 698.064 42.9251 697.771 43.5195C697.484 44.1068 697.069 44.6081 696.524 45.0234C695.987 45.4316 695.343 45.736 694.591 45.9365L694.011 46.1621H689.145L689.123 44.4756H692.797C693.542 44.4756 694.161 44.3467 694.655 44.0889C695.149 43.8239 695.522 43.4694 695.772 43.0254C696.023 42.5814 696.148 42.0908 696.148 41.5537C696.148 40.9521 696.03 40.4258 695.794 39.9746C695.558 39.5234 695.185 39.1761 694.677 38.9326C694.175 38.682 693.527 38.5566 692.732 38.5566H689.628V52.5H687.555V36.8594ZM696.696 52.5L692.894 45.4102L695.053 45.3994L698.909 52.3711V52.5H696.696ZM702.454 36.8594L706.214 42.8535L709.974 36.8594H712.391L707.449 44.6045L712.509 52.5H710.07L706.214 46.3877L702.357 52.5H699.919L704.979 44.6045L700.037 36.8594H702.454Z" fill="#1D1B20"/>
</svg>
