<svg width="34" height="31" viewBox="0 0 34 31" fill="none" xmlns="http://www.w3.org/2000/svg">
<path fill-rule="evenodd" clip-rule="evenodd" d="M24.601 6.2733C22.7889 4.83545 20.0414 5.00925 18.4644 6.66149L13.8161 11.5317C14.6619 12.8405 15.4309 13.7806 16.3066 14.5293C17.6512 13.5221 19.3736 12.9167 21.25 12.9167C22.1004 12.9167 22.9201 13.0411 23.6876 13.2714L25.0268 11.8684C26.6038 10.2162 26.4132 7.71115 24.601 6.2733ZM6.32775 17.4097L17.3958 5.81355C19.4864 3.62318 23.1287 3.39277 25.531 5.29893C27.9334 7.20508 28.1861 10.526 26.0954 12.7164L24.105 14.8017L23.6368 14.6292C22.9005 14.358 22.0953 14.2083 21.25 14.2083C19.4894 14.2083 17.8966 14.8582 16.7422 15.9108C15.5878 16.9633 14.875 18.4156 14.875 20.0208C14.875 21.0779 15.1838 22.0672 15.7232 22.9199L15.9756 23.319L15.6439 23.6666C14.5696 24.7921 13.1588 25.678 11.6133 25.9859C10.0386 26.2996 8.37118 26.0006 6.89219 24.8271C4.48984 22.921 4.23713 19.6001 6.32775 17.4097Z" fill="#22202A"/>
<path fill-rule="evenodd" clip-rule="evenodd" d="M23.2963 7.24709C23.394 6.90171 23.1662 6.5495 22.7874 6.4604C20.5363 5.93089 19.163 7.37153 18.6152 7.94613C18.6068 7.95492 18.5987 7.9635 18.5907 7.97187C18.3339 8.24093 18.3649 8.64887 18.66 8.88302C18.9551 9.11718 19.4025 9.08887 19.6593 8.81981C20.2356 8.21603 21.0685 7.39004 22.4335 7.71111C22.8123 7.80021 23.1986 7.59246 23.2963 7.24709Z" fill="#22202A"/>
<path fill-rule="evenodd" clip-rule="evenodd" d="M21.25 14.2083C17.7292 14.2083 14.875 16.8107 14.875 20.0208C14.875 23.231 17.7292 25.8333 21.25 25.8333C24.7708 25.8333 27.625 23.231 27.625 20.0208C27.625 16.8107 24.7708 14.2083 21.25 14.2083ZM13.4583 20.0208C13.4583 16.0973 16.9468 12.9167 21.25 12.9167C25.5532 12.9167 29.0416 16.0973 29.0416 20.0208C29.0416 23.9443 25.5532 27.125 21.25 27.125C16.9468 27.125 13.4583 23.9443 13.4583 20.0208Z" fill="#22202A"/>
<path fill-rule="evenodd" clip-rule="evenodd" d="M15.7764 21.358C15.6752 21.0135 15.8994 20.6594 16.2773 20.5671L25.856 18.2269C26.2339 18.1346 26.6223 18.3391 26.7236 18.6836C26.8248 19.0281 26.6006 19.3823 26.2227 19.4746L16.6439 21.8147C16.2661 21.907 15.8777 21.7026 15.7764 21.358Z" fill="#22202A"/>
</svg>
