<svg width="20" height="16" viewBox="0 0 20 16" fill="none" xmlns="http://www.w3.org/2000/svg">
<path d="M2.22222 16C1.61111 16 1.08333 15.8296 0.638889 15.4889C0.212963 15.1333 0 14.7111 0 14.2222V1.77778C0 1.28889 0.212963 0.874075 0.638889 0.533334C1.08333 0.177778 1.61111 0 2.22222 0H17.7778C18.3889 0 18.9074 0.177778 19.3333 0.533334C19.7778 0.874075 20 1.28889 20 1.77778V14.2222C20 14.7111 19.7778 15.1333 19.3333 15.4889C18.9074 15.8296 18.3889 16 17.7778 16H2.22222ZM10 11.5556C10.7037 11.5556 11.3426 11.3926 11.9167 11.0667C12.4907 10.7407 17.5556 10.3111 17.7778 9.77778V1.77778H2.22222V9.77778H6.88889C7.11111 10.3111 7.50926 10.7407 8.08333 11.0667C8.65741 11.3926 9.2963 11.5556 10 11.5556Z" fill="#1D192B"/>
</svg>
